<mxfile host="app.diagrams.net" modified="2024-05-14T02:56:47.211Z" agent="Mozilla/5.0 (Windows NT 10.0; Win64; x64) AppleWebKit/537.36 (KHTML, like Gecko) Chrome/124.0.0.0 Safari/537.36" version="24.2.5" etag="i2BLchlVy3kTFfEoZijj" type="github">
  <diagram name="第 1 页" id="SN6EFq-qjNaegZ9rO2GR">
    <mxGraphModel>
      <root>
        <mxCell id="0" />
        <mxCell id="1" parent="0" />
      </root>
    </mxGraphModel>
  </diagram>
</mxfile>
